<mxfile host="app.diagrams.net" modified="2020-06-09T13:02:57.057Z" agent="5.0 (Macintosh; Intel Mac OS X 10_15_4) AppleWebKit/537.36 (KHTML, like Gecko) Chrome/79.0.3945.130 Safari/537.36" etag="AU9COu70RI2G0xoA5xvq" version="13.1.14" type="github">
  <diagram id="QchtNmKHMTY_QOwAtES3" name="Page-1">
    <mxGraphModel dx="946" dy="613" grid="1" gridSize="10" guides="1" tooltips="1" connect="1" arrows="1" fold="1" page="1" pageScale="1" pageWidth="827" pageHeight="1169" math="0" shadow="0">
      <root>
        <mxCell id="0" />
        <mxCell id="1" parent="0" />
        <mxCell id="qDqG9xodirwCmHQp9dAq-15" style="edgeStyle=orthogonalEdgeStyle;rounded=0;orthogonalLoop=1;jettySize=auto;html=1;exitX=1;exitY=0.5;exitDx=0;exitDy=0;fontSize=13;" edge="1" parent="1" source="qDqG9xodirwCmHQp9dAq-1" target="qDqG9xodirwCmHQp9dAq-5">
          <mxGeometry relative="1" as="geometry" />
        </mxCell>
        <mxCell id="qDqG9xodirwCmHQp9dAq-1" value="动态图训练" style="rounded=0;whiteSpace=wrap;html=1;fontSize=13;" vertex="1" parent="1">
          <mxGeometry x="140" y="230" width="110" height="50" as="geometry" />
        </mxCell>
        <mxCell id="qDqG9xodirwCmHQp9dAq-18" value="" style="edgeStyle=orthogonalEdgeStyle;rounded=0;orthogonalLoop=1;jettySize=auto;html=1;fontSize=13;" edge="1" parent="1" source="qDqG9xodirwCmHQp9dAq-2" target="qDqG9xodirwCmHQp9dAq-8">
          <mxGeometry relative="1" as="geometry" />
        </mxCell>
        <mxCell id="qDqG9xodirwCmHQp9dAq-2" value="动转静" style="rounded=0;whiteSpace=wrap;html=1;fontSize=13;" vertex="1" parent="1">
          <mxGeometry x="140" y="300" width="110" height="50" as="geometry" />
        </mxCell>
        <mxCell id="qDqG9xodirwCmHQp9dAq-17" value="" style="edgeStyle=orthogonalEdgeStyle;rounded=0;orthogonalLoop=1;jettySize=auto;html=1;fontSize=13;" edge="1" parent="1" source="qDqG9xodirwCmHQp9dAq-5" target="qDqG9xodirwCmHQp9dAq-6">
          <mxGeometry relative="1" as="geometry" />
        </mxCell>
        <mxCell id="qDqG9xodirwCmHQp9dAq-5" value="&lt;span&gt;paddle.imperative.save&lt;/span&gt;&lt;br&gt;&lt;span&gt;paddle.imperative.load&lt;/span&gt;" style="rounded=0;whiteSpace=wrap;html=1;dashed=1;fontSize=13;opacity=70;fillColor=#d5e8d4;strokeColor=#82b366;" vertex="1" parent="1">
          <mxGeometry x="290" y="230" width="170" height="50" as="geometry" />
        </mxCell>
        <mxCell id="qDqG9xodirwCmHQp9dAq-6" value="模型训练/调优/Checkpoints存储载入" style="text;html=1;strokeColor=none;fillColor=none;align=center;verticalAlign=middle;whiteSpace=wrap;rounded=0;dashed=1;fontSize=13;opacity=70;" vertex="1" parent="1">
          <mxGeometry x="500" y="245" width="220" height="20" as="geometry" />
        </mxCell>
        <mxCell id="qDqG9xodirwCmHQp9dAq-20" value="" style="edgeStyle=orthogonalEdgeStyle;rounded=0;orthogonalLoop=1;jettySize=auto;html=1;fontSize=13;" edge="1" parent="1" source="qDqG9xodirwCmHQp9dAq-8" target="qDqG9xodirwCmHQp9dAq-13">
          <mxGeometry relative="1" as="geometry">
            <mxPoint x="380" y="430" as="targetPoint" />
          </mxGeometry>
        </mxCell>
        <mxCell id="qDqG9xodirwCmHQp9dAq-8" value="&lt;span&gt;paddle.imperative.jit.save&lt;/span&gt;&lt;br&gt;&lt;span&gt;paddle.imperative.jit.load&lt;/span&gt;" style="rounded=0;whiteSpace=wrap;html=1;dashed=1;fontSize=13;opacity=70;fillColor=#f8cecc;strokeColor=#b85450;" vertex="1" parent="1">
          <mxGeometry x="290" y="300" width="180" height="50" as="geometry" />
        </mxCell>
        <mxCell id="qDqG9xodirwCmHQp9dAq-9" value="PaddleInfernce" style="rounded=0;whiteSpace=wrap;html=1;fontSize=13;" vertex="1" parent="1">
          <mxGeometry x="210" y="440" width="110" height="50" as="geometry" />
        </mxCell>
        <mxCell id="qDqG9xodirwCmHQp9dAq-10" value="PaddleHub&lt;br&gt;" style="rounded=0;whiteSpace=wrap;html=1;fontSize=13;" vertex="1" parent="1">
          <mxGeometry x="590" y="440" width="110" height="50" as="geometry" />
        </mxCell>
        <mxCell id="qDqG9xodirwCmHQp9dAq-11" value="PaddleLite" style="rounded=0;whiteSpace=wrap;html=1;fontSize=13;" vertex="1" parent="1">
          <mxGeometry x="337" y="440" width="110" height="50" as="geometry" />
        </mxCell>
        <mxCell id="qDqG9xodirwCmHQp9dAq-12" value="PaddleLServing" style="rounded=0;whiteSpace=wrap;html=1;fontSize=13;" vertex="1" parent="1">
          <mxGeometry x="463" y="440" width="110" height="50" as="geometry" />
        </mxCell>
        <mxCell id="qDqG9xodirwCmHQp9dAq-21" value="" style="edgeStyle=orthogonalEdgeStyle;rounded=0;orthogonalLoop=1;jettySize=auto;html=1;fontSize=13;" edge="1" parent="1" source="qDqG9xodirwCmHQp9dAq-13" target="qDqG9xodirwCmHQp9dAq-12">
          <mxGeometry relative="1" as="geometry">
            <Array as="points">
              <mxPoint x="475" y="420" />
              <mxPoint x="518" y="420" />
            </Array>
          </mxGeometry>
        </mxCell>
        <mxCell id="qDqG9xodirwCmHQp9dAq-24" style="edgeStyle=orthogonalEdgeStyle;rounded=0;orthogonalLoop=1;jettySize=auto;html=1;exitX=0.5;exitY=1;exitDx=0;exitDy=0;entryX=0.5;entryY=0;entryDx=0;entryDy=0;fontSize=13;" edge="1" parent="1" source="qDqG9xodirwCmHQp9dAq-13" target="qDqG9xodirwCmHQp9dAq-9">
          <mxGeometry relative="1" as="geometry">
            <Array as="points">
              <mxPoint x="475" y="420" />
              <mxPoint x="265" y="420" />
            </Array>
          </mxGeometry>
        </mxCell>
        <mxCell id="qDqG9xodirwCmHQp9dAq-25" style="edgeStyle=orthogonalEdgeStyle;rounded=0;orthogonalLoop=1;jettySize=auto;html=1;exitX=0.5;exitY=1;exitDx=0;exitDy=0;entryX=0.5;entryY=0;entryDx=0;entryDy=0;fontSize=13;" edge="1" parent="1" source="qDqG9xodirwCmHQp9dAq-13" target="qDqG9xodirwCmHQp9dAq-11">
          <mxGeometry relative="1" as="geometry">
            <Array as="points">
              <mxPoint x="475" y="420" />
              <mxPoint x="392" y="420" />
            </Array>
          </mxGeometry>
        </mxCell>
        <mxCell id="qDqG9xodirwCmHQp9dAq-26" style="edgeStyle=orthogonalEdgeStyle;rounded=0;orthogonalLoop=1;jettySize=auto;html=1;exitX=0.5;exitY=1;exitDx=0;exitDy=0;entryX=0.5;entryY=0;entryDx=0;entryDy=0;fontSize=13;" edge="1" parent="1" source="qDqG9xodirwCmHQp9dAq-13" target="qDqG9xodirwCmHQp9dAq-10">
          <mxGeometry relative="1" as="geometry">
            <Array as="points">
              <mxPoint x="475" y="420" />
              <mxPoint x="645" y="420" />
            </Array>
          </mxGeometry>
        </mxCell>
        <mxCell id="qDqG9xodirwCmHQp9dAq-13" value="部署用模型训练存储载入" style="text;html=1;strokeColor=none;fillColor=none;align=center;verticalAlign=middle;whiteSpace=wrap;rounded=0;dashed=1;fontSize=13;opacity=70;" vertex="1" parent="1">
          <mxGeometry x="350" y="384" width="250" height="20" as="geometry" />
        </mxCell>
        <mxCell id="qDqG9xodirwCmHQp9dAq-29" value="" style="rounded=0;whiteSpace=wrap;html=1;dashed=1;fontSize=13;opacity=70;fillColor=none;" vertex="1" parent="1">
          <mxGeometry x="120" y="180" width="140" height="190" as="geometry" />
        </mxCell>
        <mxCell id="qDqG9xodirwCmHQp9dAq-30" value="Paddle 2.0" style="text;html=1;strokeColor=none;fillColor=none;align=center;verticalAlign=middle;whiteSpace=wrap;rounded=0;dashed=1;fontSize=14;opacity=70;" vertex="1" parent="1">
          <mxGeometry x="134" y="195" width="70" height="20" as="geometry" />
        </mxCell>
      </root>
    </mxGraphModel>
  </diagram>
</mxfile>
